<svg width="582" height="582" xmlns="http://www.w3.org/2000/svg" xmlns:xlink="http://www.w3.org/1999/xlink" overflow="hidden"><defs><clipPath id="clip0"><rect x="349" y="69" width="582" height="582"/></clipPath></defs><g clip-path="url(#clip0)" transform="translate(-349 -69)"><path d="M370 360C370 210.883 490.883 90 640 90 789.117 90 910 210.883 910 360 910 509.117 789.117 630 640 630 490.883 630 370 509.117 370 360Z" stroke="#E4D8B4" stroke-width="40" stroke-miterlimit="8" fill="#2C344C" fill-rule="evenodd"/><path d="M509 331C509 275.772 553.772 231 609 231 664.228 231 709 275.772 709 331 709 386.228 664.228 431 609 431 553.772 431 509 386.228 509 331Z" stroke="#FA4970" stroke-width="32" stroke-miterlimit="8" fill="none" fill-rule="evenodd"/><path d="M680 402 771.092 489.614" stroke="#FA4970" stroke-width="32" stroke-linecap="round" stroke-miterlimit="8" fill="none" fill-rule="evenodd"/><path d="M609.5 266.5C624.301 266.5 637.701 272.532 647.401 282.286L652.5 288.5 651.098 287.643C638.732 280.889 624.562 277.052 609.5 277.052 594.438 277.052 580.268 280.889 567.902 287.643L566.5 288.5 571.599 282.286C581.299 272.532 594.699 266.5 609.5 266.5Z" stroke="#FA4970" stroke-width="1.33333" stroke-miterlimit="8" fill="#FA4970" fill-rule="evenodd" fill-opacity="0.988235"/></g></svg>